<svg width="70" height="26" viewBox="0 0 70 26" fill="none" xmlns="http://www.w3.org/2000/svg">
<path d="M0.25 12.3821H4.70887C4.75194 13.2655 5.07978 13.9276 5.69247 14.3683C6.34816 14.81 7.22212 15.0303 8.31536 15.0303C9.10225 15.0303 9.77943 14.8762 10.3481 14.5669C10.8726 14.2586 11.1349 13.8386 11.1349 13.309C11.1349 12.5145 10.2169 11.9186 8.38093 11.5214C7.59403 11.389 7.00391 11.2566 6.6105 11.1242C4.29296 10.5511 2.74182 9.86632 1.95492 9.0719C1.07996 8.27741 0.643483 7.21818 0.643483 5.89407C0.643483 4.21726 1.27666 2.82695 2.54504 1.72315C3.85648 0.70835 5.56134 0.200439 7.6596 0.200439C9.93206 0.200439 11.7466 0.70835 13.1021 1.72315C14.3694 2.82688 15.0467 4.26168 15.1348 6.02648H12.3152C11.4843 6.02648 10.8501 5.65199 10.4136 4.90098C10.2384 4.72509 10.0633 4.54819 9.88907 4.37136C9.36452 3.97415 8.6432 3.77555 7.72524 3.77555C6.85027 3.77555 6.19459 3.90795 5.75811 4.17276C5.3647 4.43757 5.168 4.83477 5.168 5.36446C5.168 6.07098 6.30423 6.66679 8.5777 7.15198C8.83998 7.2409 9.06957 7.30711 9.26614 7.35058C9.46299 7.39508 9.64837 7.41679 9.82358 7.41679C12.053 7.9909 13.6042 8.65292 14.4792 9.40291C15.309 10.1974 15.725 11.2566 15.725 12.5807C15.725 14.5234 15.0253 16.0234 13.6268 17.0827C12.3153 18.054 10.3482 18.5392 7.72531 18.5392C5.23357 18.5392 3.37507 18.0323 2.1517 17.0165C0.88318 16.0017 0.25 14.5234 0.25 12.5807V12.3821Z" fill="white"/>
<path d="M28.9128 12.7793H32.1914C31.7098 14.6331 30.7919 16.0461 29.4374 17.0165C28.0819 18.0323 26.377 18.5392 24.3228 18.5392C21.8311 18.5392 19.8855 17.723 18.4869 16.0896C17.0874 14.5007 16.3887 12.228 16.3887 9.27051C16.3887 6.44641 17.0659 4.23896 18.4214 2.65005C19.8199 1.01766 21.7655 0.200439 24.2573 0.200439C26.8801 0.200439 28.9128 0.994933 30.3554 2.58385C31.7539 4.21726 32.4537 6.48989 32.4537 9.40291C32.4537 9.57981 32.4537 9.73392 32.4537 9.86632C32.4537 9.99872 32.4537 10.0876 32.4537 10.1311C32.4537 10.3525 32.4312 10.5066 32.3881 10.5945H21.0443C21.0873 11.9631 21.4152 12.9779 22.0279 13.64C22.5955 14.3465 23.4479 14.6993 24.5852 14.6993C25.328 14.6993 25.9622 14.5452 26.4867 14.2359C26.6179 14.1924 26.7377 14.1149 26.8473 14.0042C26.9559 13.8945 27.0768 13.7724 27.208 13.64C27.251 13.5076 27.4149 13.3317 27.6999 13.1103C27.9835 12.89 28.3883 12.7793 28.9128 12.7793ZM21.0443 7.61539H27.7325C27.6445 6.42369 27.3391 5.54129 26.8145 4.96718C26.2459 4.34959 25.4375 4.04028 24.3883 4.04028C23.4263 4.04028 22.6394 4.34959 22.0277 4.96718C21.4152 5.58572 21.0873 6.46811 21.0443 7.61539Z" fill="white"/>
<path d="M33.5107 18.208V9.66766C33.5107 7.94635 33.7617 6.50127 34.2647 5.3312C34.7668 4.16236 35.4554 3.22411 36.3303 2.51752C37.1602 1.8555 38.1336 1.37031 39.2482 1.06101C40.363 0.752721 41.5107 0.597595 42.6908 0.597595C42.7778 0.597595 42.8874 0.597595 43.0187 0.597595C43.1497 0.597595 43.2584 0.597595 43.3467 0.597595V5.29813H41.8382C40.5698 5.29813 39.6305 5.60744 39.0188 6.22503C38.4061 6.84364 38.1008 7.81394 38.1008 9.13805V18.2081H33.5107V18.208Z" fill="white"/>
<path d="M44.9893 0.597595H47.3499C47.9614 0.597595 48.486 0.818923 48.9236 1.25961C49.3601 1.70132 49.5793 2.23093 49.5793 2.84852V18.208H44.9893V0.597595Z" fill="white"/>
<path d="M53.242 18.3096C54.6857 18.3096 55.8561 17.1279 55.8561 15.6703C55.8561 14.2126 54.6857 13.0309 53.242 13.0309C51.7983 13.0309 50.6279 14.2126 50.6279 15.6703C50.6279 17.1279 51.7983 18.3096 53.242 18.3096Z" fill="white"/>
<path d="M65.7312 2.58377C64.2889 0.99486 62.2561 0.200439 59.6332 0.200439C57.1415 0.200439 55.1959 1.01766 53.7975 2.65005C52.4419 4.23896 51.7646 6.44648 51.7646 9.27051C51.7646 10.4492 51.8775 11.5171 52.0996 12.4783C52.5182 12.2889 52.9809 12.1812 53.4693 12.1812C55.3223 12.1812 56.8245 13.6979 56.8245 15.5688C56.8245 16.4086 56.5202 17.1754 56.0191 17.7673C57.0735 18.2819 58.3001 18.5393 59.6987 18.5393C61.7531 18.5393 63.4579 18.0324 64.8135 17.0165C66.1678 16.0462 67.0857 14.6331 67.5673 12.7794H64.2889C63.7644 12.7794 63.3597 12.8901 63.0758 13.1104C62.7909 13.3317 62.6269 13.5076 62.5839 13.64C62.453 13.7724 62.332 13.8946 62.2233 14.0043C62.1136 14.115 61.9938 14.1924 61.8627 14.2359C61.3381 14.5452 60.704 14.6993 59.961 14.6993C58.8238 14.6993 57.9714 14.3465 57.4038 13.64C56.7911 12.978 56.4632 11.9632 56.4204 10.5946H67.7641C67.8072 10.5067 67.8296 10.3525 67.8296 10.1312C67.8296 10.0877 67.8296 9.9988 67.8296 9.86639C67.8296 9.73399 67.8296 9.57981 67.8296 9.40298C67.8296 6.48989 67.1299 4.21718 65.7312 2.58377ZM56.4203 7.61539C56.4631 6.46819 56.7911 5.58579 57.4038 4.96718C58.0153 4.34959 58.8022 4.04028 59.7644 4.04028C60.8135 4.04028 61.6219 4.34959 62.1906 4.96718C62.7152 5.54129 63.0203 6.42369 63.1084 7.61539H56.4203Z" fill="white"/>
<path d="M54.1721 20.4597V22.9183C54.1721 23.9364 53.6458 24.4421 52.5995 24.4358C51.5594 24.4166 51.0396 23.8467 51.0396 22.7198C51.0396 21.5674 51.4834 20.9784 52.3776 20.9463C52.7961 20.9463 53.1194 21.1191 53.3351 21.4713V20.0307H53.7536C53.982 20.0308 54.1721 20.2293 54.1721 20.4597ZM51.9083 22.6814C51.9019 23.3665 52.1302 23.7124 52.6122 23.7124C53.0942 23.7124 53.3352 23.3666 53.3352 22.6814C53.3161 22.0284 53.0816 21.7082 52.6249 21.7082C52.1684 21.7083 51.9336 22.0285 51.9083 22.6814Z" fill="white"/>
<path d="M56.1128 24.4614C55.0981 24.4294 54.5908 23.834 54.5908 22.6814C54.5908 21.529 55.1045 20.9527 56.1255 20.9464C57.1908 20.9464 57.6918 21.6058 57.6284 22.9312H55.4596C55.4913 23.4498 55.7132 23.7123 56.1255 23.7123C56.3221 23.7123 56.5061 23.6291 56.6709 23.469C56.7468 23.3858 56.842 23.3474 56.9562 23.3474H57.5776C57.3936 24.0644 56.9371 24.4614 56.1128 24.4614ZM55.4721 22.3229H56.7341C56.6835 21.8747 56.4743 21.6441 56.1127 21.6441C55.7513 21.6442 55.5356 21.8747 55.4721 22.3229Z" fill="white"/>
<path d="M59.5503 23.7699C59.9053 23.7699 60.0829 23.6675 60.0829 23.4498C60.0829 23.277 59.7913 23.1361 59.2141 23.0336C58.4723 22.8992 58.0917 22.5663 58.0853 22.0349C58.0853 21.3049 58.656 20.9591 59.4234 20.9464C59.8547 20.9464 60.1971 21.0423 60.4507 21.2345C60.6979 21.433 60.8313 21.7083 60.8501 22.0604H60.3176C60.121 22.054 59.9941 21.9836 59.9434 21.8491C59.8862 21.702 59.7151 21.6187 59.4359 21.6187C59.1062 21.6187 58.9413 21.7083 58.9413 21.8812C58.9413 22.0541 59.157 22.1885 59.5946 22.2717C60.1653 22.387 60.5395 22.5342 60.7234 22.7071C60.8818 22.8736 60.958 23.0785 60.958 23.309C60.958 24.1413 60.3112 24.4487 59.4233 24.4487C58.954 24.4487 58.599 24.3462 58.3706 24.1477C58.117 23.9557 57.9902 23.6611 57.9902 23.2705H58.8525C58.8718 23.6418 59.138 23.7699 59.5503 23.7699Z" fill="white"/>
<path d="M61.8267 20.0308C62.1058 20.0308 62.239 20.1716 62.2326 20.447V20.6967H61.3892V20.0308H61.8267ZM61.8267 20.9976C62.0994 20.9976 62.2326 21.1321 62.2326 21.4074V24.3847H61.3892V20.9976H61.8267V20.9976Z" fill="white"/>
<path d="M62.7212 22.6943C62.7212 21.5673 63.2411 21.0038 64.2811 20.9847C65.3274 20.9783 65.8538 21.4777 65.8538 22.4957V24.4998C65.8538 25.3514 65.3212 25.7802 64.2494 25.7995C63.4885 25.7995 63.0066 25.4409 62.8099 24.7238H63.7421C63.7991 24.9671 63.9957 25.0824 64.3445 25.0824C64.7884 25.0824 65.0167 24.8199 65.0167 24.2949C65.0167 24.2949 65.0167 24.3013 65.0167 23.9491C64.801 24.282 64.4777 24.4486 64.0592 24.4486C63.165 24.4486 62.7212 23.8595 62.7212 22.6943ZM65.0168 22.7198C65.023 22.0348 64.7884 21.6954 64.3065 21.6954C63.8245 21.6954 63.59 22.0349 63.59 22.7198C63.6091 23.3729 63.8372 23.6995 64.2939 23.6995C64.7506 23.6995 64.9915 23.3729 65.0168 22.7198Z" fill="white"/>
<path d="M68.7395 24.3846C68.4603 24.3654 68.321 24.2309 68.321 23.962V22.2204C68.3018 21.8684 68.1115 21.6954 67.7373 21.6954C67.3632 21.6954 67.173 21.8684 67.1666 22.2204V24.3846H66.3105V22.3933C66.3105 21.4265 66.7925 20.9463 67.75 20.9463C68.7077 20.9463 69.1771 21.4265 69.1706 22.3933V24.3846H68.7395Z" fill="white"/>
</svg>
